<svg width="94" height="57" viewBox="0 0 94 57" fill="none" xmlns="http://www.w3.org/2000/svg">
<path d="M25.8811 10.7697V10.4079C30.922 4.64203 38.3317 1 46.5921 1C54.8525 1 62.2622 4.64203 67.3031 10.4079V10.7697M25.2699 45.5066V45.8684C30.3126 52.0516 37.9913 56 46.5921 56C55.193 56 62.8716 52.0516 67.9143 45.8684V45.5066M25.9671 10.4079H9.68421V21.625M67.2171 10.4079H84.2237V21.625M67.9408 45.8684H84.2237V36.0987M25.2434 45.8684H9.68421V36.0987M84.2237 21.2632H85.3092C89.5059 21.2632 92.9079 24.6652 92.9079 28.8618C92.9079 33.0585 89.5059 36.4605 85.3092 36.4605H84.2237M9.68421 21.2632H8.59868C4.40205 21.2632 1 24.6652 1 28.8618C1 33.0585 4.40205 36.4605 8.59868 36.4605H9.68421" stroke="#B8B8B8" stroke-width="1.5"/>
<path d="M26.4347 36V21.4545H32.0028C33.054 21.4545 33.9276 21.6203 34.6236 21.9517C35.3243 22.2784 35.8475 22.7259 36.1932 23.294C36.5436 23.8622 36.7188 24.5062 36.7188 25.2259C36.7188 25.8177 36.6051 26.3243 36.3778 26.7457C36.1506 27.1624 35.8452 27.5009 35.4616 27.7614C35.0781 28.0218 34.6496 28.2088 34.1761 28.3224V28.4645C34.6922 28.4929 35.187 28.6515 35.6605 28.9403C36.1387 29.2244 36.5294 29.6269 36.8324 30.1477C37.1354 30.6686 37.2869 31.2983 37.2869 32.0369C37.2869 32.7898 37.1046 33.4669 36.7401 34.0682C36.3755 34.6648 35.8262 35.1359 35.0923 35.4815C34.3584 35.8272 33.4351 36 32.3224 36H26.4347ZM29.0696 33.7983H31.9034C32.8598 33.7983 33.5488 33.616 33.9702 33.2514C34.3963 32.8821 34.6094 32.4086 34.6094 31.831C34.6094 31.4001 34.5028 31.0118 34.2898 30.6662C34.0767 30.3158 33.7737 30.0412 33.3807 29.8423C32.9877 29.6387 32.5189 29.5369 31.9744 29.5369H29.0696V33.7983ZM29.0696 27.6406H31.6761C32.1307 27.6406 32.5402 27.5578 32.9048 27.392C33.2694 27.2216 33.5559 26.9825 33.7642 26.6747C33.9773 26.3622 34.0838 25.9929 34.0838 25.5668C34.0838 25.0033 33.8849 24.5393 33.4872 24.1747C33.0942 23.8101 32.5095 23.6278 31.733 23.6278H29.0696V27.6406ZM42.0366 21.4545V36H39.4656V21.4545H42.0366ZM49.4389 36.2131C48.3736 36.2131 47.4503 35.9787 46.669 35.5099C45.8878 35.0412 45.2817 34.3854 44.8509 33.5426C44.4247 32.6998 44.2116 31.715 44.2116 30.5881C44.2116 29.4612 44.4247 28.474 44.8509 27.6264C45.2817 26.7789 45.8878 26.1207 46.669 25.652C47.4503 25.1832 48.3736 24.9489 49.4389 24.9489C50.5043 24.9489 51.4276 25.1832 52.2088 25.652C52.9901 26.1207 53.5938 26.7789 54.0199 27.6264C54.4508 28.474 54.6662 29.4612 54.6662 30.5881C54.6662 31.715 54.4508 32.6998 54.0199 33.5426C53.5938 34.3854 52.9901 35.0412 52.2088 35.5099C51.4276 35.9787 50.5043 36.2131 49.4389 36.2131ZM49.4531 34.1534C50.0308 34.1534 50.5137 33.9948 50.902 33.6776C51.2902 33.3556 51.5791 32.9247 51.7685 32.3849C51.9626 31.8452 52.0597 31.2438 52.0597 30.581C52.0597 29.9134 51.9626 29.3097 51.7685 28.7699C51.5791 28.2254 51.2902 27.7921 50.902 27.4702C50.5137 27.1482 50.0308 26.9872 49.4531 26.9872C48.8613 26.9872 48.3688 27.1482 47.9759 27.4702C47.5876 27.7921 47.2964 28.2254 47.1023 28.7699C46.9129 29.3097 46.8182 29.9134 46.8182 30.581C46.8182 31.2438 46.9129 31.8452 47.1023 32.3849C47.2964 32.9247 47.5876 33.3556 47.9759 33.6776C48.3688 33.9948 48.8613 34.1534 49.4531 34.1534ZM61.5927 40.3182C60.6694 40.3182 59.8763 40.1927 59.2134 39.9418C58.5505 39.6955 58.0179 39.3641 57.6154 38.9474C57.2129 38.5308 56.9336 38.0691 56.7773 37.5625L59.0927 37.0014C59.1969 37.2145 59.3484 37.4252 59.5472 37.6335C59.7461 37.8466 60.0136 38.0218 60.3498 38.1591C60.6907 38.3011 61.1192 38.3722 61.6353 38.3722C62.3645 38.3722 62.9682 38.1946 63.4464 37.8395C63.9246 37.4891 64.1637 36.9115 64.1637 36.1065V34.0398H64.0359C63.9033 34.3049 63.7092 34.5772 63.4535 34.8565C63.2025 35.1359 62.8687 35.3703 62.4521 35.5597C62.0401 35.7491 61.5217 35.8438 60.8967 35.8438C60.0586 35.8438 59.2987 35.6473 58.6168 35.2543C57.9397 34.8565 57.4 34.2647 56.9975 33.4787C56.5998 32.688 56.4009 31.6984 56.4009 30.5099C56.4009 29.312 56.5998 28.3011 56.9975 27.4773C57.4 26.6487 57.9421 26.0213 58.6239 25.5952C59.3058 25.1643 60.0657 24.9489 60.9038 24.9489C61.543 24.9489 62.0685 25.0578 62.4805 25.2756C62.8971 25.4886 63.2286 25.7467 63.4748 26.0497C63.721 26.348 63.908 26.6297 64.0359 26.8949H64.1779V25.0909H66.7134V36.1776C66.7134 37.1103 66.4909 37.8821 66.0458 38.4929C65.6007 39.1037 64.9923 39.5606 64.2205 39.8636C63.4487 40.1667 62.5728 40.3182 61.5927 40.3182ZM61.614 33.8267C62.1585 33.8267 62.6225 33.6941 63.006 33.429C63.3896 33.1638 63.6808 32.7827 63.8796 32.2855C64.0785 31.7884 64.1779 31.1918 64.1779 30.4957C64.1779 29.8092 64.0785 29.2079 63.8796 28.6918C63.6855 28.1757 63.3967 27.7756 63.0131 27.4915C62.6344 27.2027 62.168 27.0582 61.614 27.0582C61.0411 27.0582 60.5629 27.2074 60.1793 27.5057C59.7958 27.804 59.507 28.2135 59.3129 28.7344C59.1187 29.2505 59.0217 29.8376 59.0217 30.4957C59.0217 31.1634 59.1187 31.7481 59.3129 32.25C59.5117 32.7472 59.8029 33.1354 60.1864 33.4148C60.5747 33.6894 61.0505 33.8267 61.614 33.8267Z" fill="#B8B8B8"/>
</svg>
