<svg width="94" height="57" viewBox="0 0 94 57" fill="none" xmlns="http://www.w3.org/2000/svg">
<path d="M1 29C1 34.2 6.66667 36.5 9.5 37V45.5H25C27.3333 49.1667 34.9 56.5 46.5 56.5C58.1 56.5 65.6667 49.1667 68 45.5H84V37C87 37 93 35.4 93 29C93 22.6 87 21 84 21V10.5H67C58.5 3.00002 57 2.00003 46.5 1.00003C38.1 0.200025 29 7.00002 25.5 10.5H9.5V21C6.66667 21.5 1 23.8 1 29Z" fill="white"/>
<path d="M28 33.7716V20H33.2719C34.2671 20 35.0942 20.1569 35.7532 20.4707C36.4167 20.78 36.9121 21.2037 37.2393 21.7416C37.5711 22.2796 37.7369 22.8893 37.7369 23.5707C37.7369 24.131 37.6293 24.6107 37.4142 25.0097C37.199 25.4042 36.9098 25.7247 36.5467 25.9713C36.1836 26.2178 35.7779 26.3949 35.3296 26.5025V26.637C35.8182 26.6639 36.2867 26.8141 36.735 27.0875C37.1878 27.3565 37.5576 27.7375 37.8445 28.2307C38.1314 28.7238 38.2749 29.32 38.2749 30.0194C38.2749 30.7321 38.1023 31.3732 37.7571 31.9425C37.4119 32.5074 36.8919 32.9534 36.197 33.2807C35.5022 33.6079 34.628 33.7716 33.5745 33.7716H28ZM30.4948 31.687H33.1778C34.0833 31.687 34.7356 31.5144 35.1346 31.1692C35.5381 30.8196 35.7398 30.3713 35.7398 29.8243C35.7398 29.4164 35.6389 29.0488 35.4372 28.7215C35.2355 28.3898 34.9485 28.1298 34.5765 27.9415C34.2044 27.7487 33.7606 27.6524 33.245 27.6524H30.4948V31.687ZM30.4948 25.857H32.9626C33.393 25.857 33.7807 25.7785 34.1259 25.6216C34.4711 25.4602 34.7423 25.2338 34.9396 24.9424C35.1413 24.6466 35.2422 24.2969 35.2422 23.8934C35.2422 23.36 35.0539 22.9206 34.6773 22.5754C34.3052 22.2303 33.7516 22.0577 33.0164 22.0577H30.4948V25.857Z" fill="#ED1C24"/>
<path d="M42.7718 20V33.7716H40.3376V20H42.7718Z" fill="#ED1C24"/>
<path d="M49.7803 33.9733C48.7717 33.9733 47.8975 33.7514 47.1578 33.3076C46.4181 32.8638 45.8443 32.2429 45.4364 31.4449C45.0329 30.647 44.8312 29.7145 44.8312 28.6476C44.8312 27.5806 45.0329 26.6459 45.4364 25.8435C45.8443 25.0411 46.4181 24.4179 47.1578 23.9741C47.8975 23.5303 48.7717 23.3084 49.7803 23.3084C50.789 23.3084 51.6632 23.5303 52.4028 23.9741C53.1425 24.4179 53.7141 25.0411 54.1176 25.8435C54.5255 26.6459 54.7295 27.5806 54.7295 28.6476C54.7295 29.7145 54.5255 30.647 54.1176 31.4449C53.7141 32.2429 53.1425 32.8638 52.4028 33.3076C51.6632 33.7514 50.789 33.9733 49.7803 33.9733ZM49.7938 32.0232C50.3407 32.0232 50.798 31.873 51.1656 31.5727C51.5332 31.2679 51.8066 30.8599 51.9859 30.3488C52.1697 29.8378 52.2616 29.2685 52.2616 28.6409C52.2616 28.0088 52.1697 27.4372 51.9859 26.9261C51.8066 26.4106 51.5332 26.0004 51.1656 25.6956C50.798 25.3907 50.3407 25.2383 49.7938 25.2383C49.2334 25.2383 48.7672 25.3907 48.3951 25.6956C48.0275 26.0004 47.7518 26.4106 47.568 26.9261C47.3887 27.4372 47.299 28.0088 47.299 28.6409C47.299 29.2685 47.3887 29.8378 47.568 30.3488C47.7518 30.8599 48.0275 31.2679 48.3951 31.5727C48.7672 31.873 49.2334 32.0232 49.7938 32.0232Z" fill="#ED1C24"/>
<path d="M61.2875 37.86C60.4133 37.86 59.6624 37.7412 59.0348 37.5036C58.4072 37.2705 57.9028 36.9567 57.5218 36.5622C57.1407 36.1677 56.8762 35.7306 56.7283 35.2509L58.9205 34.7197C59.0191 34.9214 59.1625 35.1209 59.3508 35.3182C59.5391 35.5199 59.7924 35.6858 60.1107 35.8158C60.4335 35.9503 60.8392 36.0175 61.3278 36.0175C62.0182 36.0175 62.5897 35.8494 63.0425 35.5132C63.4953 35.1815 63.7217 34.6345 63.7217 33.8724V31.9156H63.6006C63.4751 32.1667 63.2913 32.4244 63.0492 32.6889C62.8116 32.9534 62.4956 33.1753 62.1011 33.3547C61.7111 33.534 61.2202 33.6236 60.6285 33.6236C59.835 33.6236 59.1155 33.4376 58.4699 33.0655C57.8289 32.6889 57.3178 32.1286 56.9368 31.3844C56.5602 30.6358 56.3719 29.6988 56.3719 28.5736C56.3719 27.4394 56.5602 26.4823 56.9368 25.7023C57.3178 24.9178 57.8311 24.3238 58.4767 23.9203C59.1222 23.5124 59.8417 23.3084 60.6352 23.3084C61.2404 23.3084 61.738 23.4115 62.128 23.6177C62.5225 23.8195 62.8363 24.0638 63.0694 24.3507C63.3025 24.6331 63.4796 24.8998 63.6006 25.1509H63.7351V23.4429H66.1357V33.9397C66.1357 34.8228 65.925 35.5535 65.5036 36.1318C65.0823 36.7101 64.5062 37.1427 63.7755 37.4296C63.0448 37.7165 62.2154 37.86 61.2875 37.86ZM61.3076 31.7139C61.8232 31.7139 62.2625 31.5884 62.6256 31.3373C62.9887 31.0863 63.2644 30.7254 63.4527 30.2547C63.641 29.784 63.7351 29.2192 63.7351 28.5602C63.7351 27.9101 63.641 27.3408 63.4527 26.8522C63.2689 26.3635 62.9954 25.9847 62.6323 25.7157C62.2737 25.4423 61.8321 25.3055 61.3076 25.3055C60.7652 25.3055 60.3124 25.4468 59.9493 25.7292C59.5862 26.0116 59.3127 26.3994 59.1289 26.8925C58.9451 27.3811 58.8532 27.937 58.8532 28.5602C58.8532 29.1923 58.9451 29.7459 59.1289 30.2211C59.3172 30.6918 59.5929 31.0594 59.956 31.3239C60.3236 31.5839 60.7742 31.7139 61.3076 31.7139Z" fill="#ED1C24"/>
<path d="M25.8811 10.7697V10.4079C30.922 4.64203 38.3317 1 46.5921 1C54.8525 1 62.2622 4.64203 67.3031 10.4079V10.7697M25.2699 45.5066V45.8684C30.3126 52.0516 37.9913 56 46.5921 56C55.193 56 62.8716 52.0516 67.9143 45.8684V45.5066M25.9671 10.4079H9.68421V21.625M67.2171 10.4079H84.2237V21.625M67.9408 45.8684H84.2237V36.0987M25.2434 45.8684H9.68421V36.0987M84.2237 21.2632H85.3092C89.5059 21.2632 92.9079 24.6652 92.9079 28.8618C92.9079 33.0585 89.5059 36.4605 85.3092 36.4605H84.2237M9.68421 21.2632H8.59868C4.40205 21.2632 1 24.6652 1 28.8618C1 33.0585 4.40205 36.4605 8.59868 36.4605H9.68421" stroke="#ED1C24" stroke-width="1.5"/>
<path d="M29.5745 13.9934V13.6974C33.7429 8.97984 39.8702 6 46.7008 6C53.5314 6 59.6586 8.97984 63.827 13.6974V13.9934M29.0692 42.4145V42.7105C33.239 47.7695 39.5886 51 46.7008 51C53.813 51 60.1625 47.7695 64.3324 42.7105V42.4145M29.6457 13.6974H16.1811V22.875M63.7559 13.6974H77.8189V22.875M64.3543 42.7105H77.8189V34.7171M29.0472 42.7105H16.1811V34.7171M77.8189 22.5789H78.7165C82.1868 22.5789 85 25.3624 85 28.7961C85 32.2297 82.1868 35.0132 78.7165 35.0132H77.8189M16.1811 22.5789H15.2835C11.8132 22.5789 9 25.3624 9 28.7961C9 32.2297 11.8132 35.0132 15.2835 35.0132H16.1811" stroke="#ED1C24" stroke-width="0.5" stroke-dasharray="2 2"/>
</svg>
