<svg width="94" height="57" viewBox="0 0 94 57" fill="none" xmlns="http://www.w3.org/2000/svg">
<path d="M1 29C1 34.2 6.66667 36.5 9.5 37V45.5H25C27.3333 49.1667 34.9 56.5 46.5 56.5C58.1 56.5 65.6667 49.1667 68 45.5H84V37C87 37 93 35.4 93 29C93 22.6 87 21 84 21V10.5H67C58.5 2.99999 57 1.99999 46.5 0.999995C38.1 0.199995 29 6.99999 25.5 10.5H9.5V21C6.66667 21.5 1 23.8 1 29Z" fill="white"/>
<path d="M49.7245 20.7591V24.9883H54.9989L54.1638 30.6864H49.7245V43.8133C48.8342 43.9363 47.9236 44 46.9994 44C45.9322 44 44.8852 43.915 43.8641 43.7518V30.6864H39V24.9883H43.8641V19.8144C43.8641 16.6037 46.4878 14 49.7256 14V14.0034C49.7347 14.0034 49.7437 14 49.7527 14H55V18.9268H51.5717C50.5517 18.9268 49.7256 19.7462 49.7256 20.758L49.7245 20.7591Z" fill="#ED1C24"/>
<path d="M25.8811 10.7697V10.4079C30.922 4.64203 38.3317 1 46.5921 1C54.8525 1 62.2622 4.64203 67.3031 10.4079V10.7697M25.2699 45.5066V45.8684C30.3126 52.0516 37.9913 56 46.5921 56C55.193 56 62.8716 52.0516 67.9143 45.8684V45.5066M25.9671 10.4079H9.68421V21.625M67.2171 10.4079H84.2237V21.625M67.9408 45.8684H84.2237V36.0987M25.2434 45.8684H9.68421V36.0987M84.2237 21.2632H85.3092C89.5059 21.2632 92.9079 24.6652 92.9079 28.8618C92.9079 33.0585 89.5059 36.4605 85.3092 36.4605H84.2237M9.68421 21.2632H8.59868C4.40205 21.2632 1 24.6652 1 28.8618C1 33.0585 4.40205 36.4605 8.59868 36.4605H9.68421" stroke="#ED1C24" stroke-width="1.5"/>
<path d="M29.5745 13.9934V13.6974C33.7429 8.97984 39.8702 6 46.7008 6C53.5314 6 59.6586 8.97984 63.827 13.6974V13.9934M29.0692 42.4145V42.7105C33.239 47.7695 39.5886 51 46.7008 51C53.813 51 60.1625 47.7695 64.3324 42.7105V42.4145M29.6457 13.6974H16.1811V22.875M63.7559 13.6974H77.8189V22.875M64.3543 42.7105H77.8189V34.7171M29.0472 42.7105H16.1811V34.7171M77.8189 22.5789H78.7165C82.1868 22.5789 85 25.3624 85 28.7961C85 32.2297 82.1868 35.0132 78.7165 35.0132H77.8189M16.1811 22.5789H15.2835C11.8132 22.5789 9 25.3624 9 28.7961C9 32.2297 11.8132 35.0132 15.2835 35.0132H16.1811" stroke="#ED1C24" stroke-width="0.5" stroke-dasharray="2 2"/>
</svg>
