<svg width="94" height="57" viewBox="0 0 94 57" fill="none" xmlns="http://www.w3.org/2000/svg">
<path d="M50.0651 19.6603V24.4534H55.9987L55.0592 30.9113H50.0651V45.7884C49.0635 45.9278 48.039 46 46.9994 46C45.7987 46 44.6208 45.9037 43.4721 45.7187V30.9113H38V24.4534H43.4721V18.5897C43.4721 14.9508 46.4237 12 50.0663 12V12.0038C50.0765 12.0038 50.0866 12 50.0968 12H56V17.5837H52.1431C50.9957 17.5837 50.0663 18.5124 50.0663 19.659L50.0651 19.6603Z" fill="#B8B8B8"/>
<path d="M25.8811 10.7697V10.4079C30.922 4.64203 38.3317 1 46.5921 1C54.8525 1 62.2622 4.64203 67.3031 10.4079V10.7697M25.2699 45.5066V45.8684C30.3126 52.0516 37.9913 56 46.5921 56C55.193 56 62.8716 52.0516 67.9143 45.8684V45.5066M25.9671 10.4079H9.68421V21.625M67.2171 10.4079H84.2237V21.625M67.9408 45.8684H84.2237V36.0987M25.2434 45.8684H9.68421V36.0987M84.2237 21.2632H85.3092C89.5059 21.2632 92.9079 24.6652 92.9079 28.8618C92.9079 33.0585 89.5059 36.4605 85.3092 36.4605H84.2237M9.68421 21.2632H8.59868C4.40205 21.2632 1 24.6652 1 28.8618C1 33.0585 4.40205 36.4605 8.59868 36.4605H9.68421" stroke="#B8B8B8" stroke-width="1.5"/>
</svg>
