<svg width="1920" height="500" viewBox="0 0 1920 500" fill="none" xmlns="http://www.w3.org/2000/svg">
<g clip-path="url(#clip0_128_5)">
<rect width="1920" height="500" fill="#272727"/>
<path d="M611.21 427.194V321.036H753.753H764.539C812.26 266.468 882.405 232 960.603 232C1038.8 232 1108.95 266.468 1156.67 321.036H1165H1169.48H1170.51H1171.55M611.21 564.172V656.632H758.503H758.754C806.491 715.149 879.182 752.517 960.603 752.517C1042.02 752.517 1114.71 715.149 1162.45 656.632H1162.7L1309.43 656.632V567.596M611.21 423.769H600.934C561.206 423.769 529 455.966 529 495.683C529 535.4 561.206 567.596 600.934 567.596H611.21M1309.43 427.194V423.769M1309.43 423.769V321.036H1194.64H1171.2H1171.01M1309.43 423.769H1319.71C1359.43 423.769 1391.64 455.966 1391.64 495.683C1391.64 535.4 1359.43 567.596 1319.71 567.596H1309.43M1309.43 567.596V564.172" stroke="url(#paint0_linear_128_5)" stroke-width="27"/>
<path d="M611.21 -105.806V-211.964H753.753H764.539C812.26 -266.532 882.405 -301 960.603 -301C1038.8 -301 1108.95 -266.532 1156.67 -211.964H1165H1169.48H1170.51H1171.55M611.21 31.172V123.632H758.503H758.754C806.491 182.149 879.182 219.517 960.603 219.517C1042.02 219.517 1114.71 182.149 1162.45 123.632H1162.7L1309.43 123.632V34.5964M611.21 -109.231H600.934C561.206 -109.231 529 -77.0339 529 -37.3171C529 2.39962 561.206 34.5964 600.934 34.5964H611.21M1309.43 -105.806V-109.231M1309.43 -109.231V-211.964H1194.64H1171.2H1171.01M1309.43 -109.231H1319.71C1359.43 -109.231 1391.64 -77.0338 1391.64 -37.3171C1391.64 2.39965 1359.43 34.5964 1319.71 34.5964H1309.43M1309.43 34.5964V31.172" stroke="url(#paint1_linear_128_5)" stroke-width="27"/>
</g>
<defs>
<linearGradient id="paint0_linear_128_5" x1="960.32" y1="102.5" x2="960.32" y2="612" gradientUnits="userSpaceOnUse">
<stop stop-color="#333333"/>
<stop offset="1" stop-color="#272727" stop-opacity="0"/>
</linearGradient>
<linearGradient id="paint1_linear_128_5" x1="960.32" y1="-362" x2="960.32" y2="331.5" gradientUnits="userSpaceOnUse">
<stop stop-color="#272727" stop-opacity="0"/>
<stop offset="1" stop-color="#333333"/>
</linearGradient>
<clipPath id="clip0_128_5">
<rect width="1920" height="500" fill="white"/>
</clipPath>
</defs>
</svg>
