<svg width="94" height="57" viewBox="0 0 94 57" fill="none" xmlns="http://www.w3.org/2000/svg">
<path d="M25.8811 10.7697V10.4079C30.922 4.64203 38.3317 1 46.5921 1C54.8525 1 62.2622 4.64203 67.3031 10.4079V10.7697M25.2699 45.5066V45.8684C30.3126 52.0516 37.9913 56 46.5921 56C55.193 56 62.8716 52.0516 67.9143 45.8684V45.5066M25.9671 10.4079H9.68421V21.625M67.2171 10.4079H84.2237V21.625M67.9408 45.8684H84.2237V36.0987M25.2434 45.8684H9.68421V36.0987M84.2237 21.2632H85.3092C89.5059 21.2632 92.9079 24.6652 92.9079 28.8618C92.9079 33.0585 89.5059 36.4605 85.3092 36.4605H84.2237M9.68421 21.2632H8.59868C4.40205 21.2632 1 24.6652 1 28.8618C1 33.0585 4.40205 36.4605 8.59868 36.4605H9.68421" stroke="#B8B8B8" stroke-width="1.5"/>
<path d="M54.989 13H38.3404C33.7408 13 30 16.7409 30 21.3404V36.5717C30 41.1712 33.7408 44.912 38.3404 44.912H54.989C59.5885 44.912 63.3294 41.1712 63.3294 36.5717V21.3404C63.3294 16.7409 59.5885 13 54.989 13ZM32.9419 21.3404C32.9419 18.3633 35.3633 15.9419 38.3404 15.9419H54.989C57.9661 15.9419 60.3875 18.3633 60.3875 21.3404V36.5717C60.3875 39.5487 57.9661 41.9702 54.989 41.9702H38.3404C35.3633 41.9702 32.9419 39.5487 32.9419 36.5717V21.3404Z" fill="#B8B8B8"/>
<path d="M46.6639 36.714C50.942 36.714 54.4227 33.2334 54.4227 28.9552C54.4227 24.6771 50.942 21.1965 46.6639 21.1965C42.3858 21.1965 38.9052 24.6771 38.9052 28.9552C38.9052 33.2334 42.3858 36.714 46.6639 36.714ZM46.6639 24.1399C49.3196 24.1399 51.4793 26.2996 51.4793 28.9552C51.4793 31.6109 49.3196 33.7706 46.6639 33.7706C44.0083 33.7706 41.8485 31.6109 41.8485 28.9552C41.8485 26.2996 44.0083 24.1399 46.6639 24.1399Z" fill="#B8B8B8"/>
<path d="M55.142 22.4485C56.2946 22.4485 57.2329 21.5103 57.2329 20.3577C57.2329 19.2052 56.2946 18.2669 55.142 18.2669C53.9895 18.2669 53.0512 19.2052 53.0512 20.3577C53.0512 21.5103 53.9895 22.4485 55.142 22.4485Z" fill="#B8B8B8"/>
</svg>
