<svg width="94" height="57" viewBox="0 0 94 57" fill="none" xmlns="http://www.w3.org/2000/svg">
<path d="M25.8811 10.7697V10.4079C30.922 4.64203 38.3317 1 46.5921 1C54.8525 1 62.2622 4.64203 67.3031 10.4079V10.7697M25.2699 45.5066V45.8684C30.3126 52.0516 37.9913 56 46.5921 56C55.193 56 62.8716 52.0516 67.9143 45.8684V45.5066M25.9671 10.4079H9.68421V21.625M67.2171 10.4079H84.2237V21.625M67.9408 45.8684H84.2237V36.0987M25.2434 45.8684H9.68421V36.0987M84.2237 21.2632H85.3092C89.5059 21.2632 92.9079 24.6652 92.9079 28.8618C92.9079 33.0585 89.5059 36.4605 85.3092 36.4605H84.2237M9.68421 21.2632H8.59868C4.40205 21.2632 1 24.6652 1 28.8618C1 33.0585 4.40205 36.4605 8.59868 36.4605H9.68421" stroke="#B8B8B8" stroke-width="1.5"/>
<path d="M33.0622 15.9067C32.3536 15.2485 32 14.4342 32 13.4653C32 12.4965 32.3536 11.6454 33.0622 10.9873C33.7709 10.3291 34.6832 10 35.8021 10C36.9209 10 37.7965 10.3291 38.5036 10.9873C39.2123 11.6454 39.5659 12.472 39.5659 13.4653C39.5659 14.4587 39.2123 15.2485 38.5036 15.9067C37.795 16.5649 36.8949 16.8939 35.8021 16.8939C34.7092 16.8939 33.7709 16.5649 33.0622 15.9067ZM38.9689 19.6812V39.8503H32.5969V19.6812H38.9689Z" fill="#B8B8B8"/>
<path d="M60.185 21.6725C61.5733 23.1802 62.2681 25.2511 62.2681 27.8869V39.4952H56.2145V28.7058C56.2145 27.3772 55.8702 26.344 55.1814 25.6078C54.4926 24.8715 53.5665 24.5042 52.4033 24.5042C51.24 24.5042 50.314 24.8731 49.6252 25.6078C48.9364 26.344 48.592 27.3772 48.592 28.7058V39.4952H42.5032V19.6261H48.592V22.2618C49.2089 21.3832 50.04 20.6899 51.0854 20.1786C52.1293 19.6689 53.3048 19.4133 54.6104 19.4133C56.937 19.4133 58.7952 20.1679 60.1834 21.6741L60.185 21.6725Z" fill="#B8B8B8"/>
</svg>
