<svg width="94" height="57" viewBox="0 0 94 57" fill="none" xmlns="http://www.w3.org/2000/svg">
<path d="M1 29C1 34.2 6.66667 36.5 9.5 37V45.5H25C27.3333 49.1667 34.9 56.5 46.5 56.5C58.1 56.5 65.6667 49.1667 68 45.5H84V37C87 37 93 35.4 93 29C93 22.6 87 21 84 21V10.5H67C58.5 3.00002 57 2.00003 46.5 1.00003C38.1 0.200025 29 7.00002 25.5 10.5H9.5V21C6.66667 21.5 1 23.8 1 29Z" fill="white"/>
<path d="M34.2414 18.4118C33.5921 17.8087 33.2681 17.0627 33.2681 16.175C33.2681 15.2873 33.5921 14.5076 34.2414 13.9045C34.8907 13.3015 35.7265 13 36.7516 13C37.7767 13 38.5789 13.3015 39.2268 13.9045C39.8761 14.5076 40.2 15.2648 40.2 16.175C40.2 17.0851 39.8761 17.8087 39.2268 18.4118C38.5775 19.0148 37.7529 19.3163 36.7516 19.3163C35.7503 19.3163 34.8907 19.0148 34.2414 18.4118ZM39.6531 21.87V40.3491H33.815V21.87H39.6531Z" fill="#ED1C24"/>
<path d="M59.0914 23.6945C60.3634 25.0758 61 26.9732 61 29.3881V40.0237H55.4537V30.1384C55.4537 28.9211 55.1381 27.9745 54.5071 27.3C53.876 26.6254 53.0275 26.2889 51.9617 26.2889C50.8959 26.2889 50.0475 26.6268 49.4165 27.3C48.7854 27.9745 48.4698 28.9211 48.4698 30.1384V40.0237H42.8912V21.8195H48.4698V24.2344C49.035 23.4294 49.7965 22.7942 50.7543 22.3258C51.7107 21.8588 52.7878 21.6246 53.984 21.6246C56.1156 21.6246 57.8181 22.3159 59.09 23.6959L59.0914 23.6945Z" fill="#ED1C24"/>
<path d="M25.8811 10.7697V10.4079C30.922 4.64203 38.3317 1 46.5921 1C54.8525 1 62.2622 4.64203 67.3031 10.4079V10.7697M25.2699 45.5066V45.8684C30.3126 52.0516 37.9913 56 46.5921 56C55.193 56 62.8716 52.0516 67.9143 45.8684V45.5066M25.9671 10.4079H9.68421V21.625M67.2171 10.4079H84.2237V21.625M67.9408 45.8684H84.2237V36.0987M25.2434 45.8684H9.68421V36.0987M84.2237 21.2632H85.3092C89.5059 21.2632 92.9079 24.6652 92.9079 28.8618C92.9079 33.0585 89.5059 36.4605 85.3092 36.4605H84.2237M9.68421 21.2632H8.59868C4.40205 21.2632 1 24.6652 1 28.8618C1 33.0585 4.40205 36.4605 8.59868 36.4605H9.68421" stroke="#ED1C24" stroke-width="1.5"/>
<path d="M29.5745 13.9934V13.6974C33.7429 8.97984 39.8702 6 46.7008 6C53.5314 6 59.6586 8.97984 63.827 13.6974V13.9934M29.0692 42.4145V42.7105C33.239 47.7695 39.5886 51 46.7008 51C53.813 51 60.1625 47.7695 64.3324 42.7105V42.4145M29.6457 13.6974H16.1811V22.875M63.7559 13.6974H77.8189V22.875M64.3543 42.7105H77.8189V34.7171M29.0472 42.7105H16.1811V34.7171M77.8189 22.5789H78.7165C82.1868 22.5789 85 25.3624 85 28.7961C85 32.2297 82.1868 35.0132 78.7165 35.0132H77.8189M16.1811 22.5789H15.2835C11.8132 22.5789 9 25.3624 9 28.7961C9 32.2297 11.8132 35.0132 15.2835 35.0132H16.1811" stroke="#ED1C24" stroke-width="0.5" stroke-dasharray="2 2"/>
</svg>
