<svg width="94" height="57" viewBox="0 0 94 57" fill="none" xmlns="http://www.w3.org/2000/svg">
<path d="M1 29C1 34.2 6.66667 36.5 9.5 37V45.5H25C27.3333 49.1667 34.9 56.5 46.5 56.5C58.1 56.5 65.6667 49.1667 68 45.5H84V37C87 37 93 35.4 93 29C93 22.6 87 21 84 21V10.5H67C58.5 2.99999 57 1.99999 46.5 0.999995C38.1 0.199995 29 6.99999 25.5 10.5H9.5V21C6.66667 21.5 1 23.8 1 29Z" fill="white"/>
<path d="M29.794 27.4748C29.8635 27.4393 29.9329 27.4067 30.0024 27.3755C31.1863 26.8268 32.3858 26.3136 33.5839 25.8003C33.6491 25.8003 33.7583 25.7266 33.8178 25.6997C33.91 25.66 34.0022 25.6203 34.0957 25.5806C34.273 25.504 34.4516 25.4289 34.6289 25.3523C34.9847 25.2006 35.3392 25.0489 35.6951 24.8958C36.4054 24.5923 37.1172 24.2875 37.8275 23.9841C39.2496 23.3759 40.6718 22.7676 42.0939 22.1594C43.516 21.5511 44.9381 20.9429 46.3602 20.3347C47.7823 19.7264 49.2044 19.1182 50.6265 18.5099C52.0486 17.9017 53.4707 17.2934 54.8929 16.6852C55.209 16.5505 55.5521 16.3463 55.8896 16.2868C56.1746 16.2372 56.4525 16.1379 56.7375 16.084C57.2805 15.9805 57.8803 15.938 58.3992 16.1634C58.5793 16.2414 58.7437 16.352 58.8841 16.4895C59.5434 17.1432 59.4512 18.215 59.3123 19.1338C58.3396 25.5366 57.367 31.9381 56.3929 38.3409C56.2596 39.2185 56.0796 40.1827 55.3848 40.737C54.7979 41.2063 53.9627 41.2602 53.2396 41.0603C52.5151 40.8604 51.8756 40.4393 51.2489 40.0239C48.6486 38.3026 46.0482 36.58 43.4479 34.8587C42.8297 34.449 42.1421 33.9159 42.1492 33.1744C42.1534 32.7278 42.42 32.3294 42.6922 31.9749C44.9508 29.0287 48.2133 27.0026 50.6379 24.1911C50.9796 23.7955 51.249 23.0781 50.7797 22.8499C50.5003 22.7137 50.1785 22.8981 49.9247 23.0753C46.7189 25.3027 43.5131 27.5301 40.3074 29.756C39.261 30.482 38.165 31.2306 36.9045 31.4092C35.7773 31.5694 34.6416 31.2561 33.5499 30.9342C32.6354 30.6649 31.7223 30.3898 30.812 30.1048C30.3285 29.9545 29.8294 29.7929 29.4551 29.4512C29.0808 29.1109 28.8667 28.5381 29.0921 28.0844C29.2325 27.7994 29.5076 27.6194 29.7954 27.4734L29.794 27.4748Z" fill="#ED1C24"/>
<path d="M25.8811 10.7697V10.4079C30.922 4.64203 38.3317 1 46.5921 1C54.8525 1 62.2622 4.64203 67.3031 10.4079V10.7697M25.2699 45.5066V45.8684C30.3126 52.0516 37.9913 56 46.5921 56C55.193 56 62.8716 52.0516 67.9143 45.8684V45.5066M25.9671 10.4079H9.68421V21.625M67.2171 10.4079H84.2237V21.625M67.9408 45.8684H84.2237V36.0987M25.2434 45.8684H9.68421V36.0987M84.2237 21.2632H85.3092C89.5059 21.2632 92.9079 24.6652 92.9079 28.8618C92.9079 33.0585 89.5059 36.4605 85.3092 36.4605H84.2237M9.68421 21.2632H8.59868C4.40205 21.2632 1 24.6652 1 28.8618C1 33.0585 4.40205 36.4605 8.59868 36.4605H9.68421" stroke="#ED1C24" stroke-width="1.5"/>
<path d="M29.5745 13.9934V13.6974C33.7429 8.97984 39.8702 6 46.7008 6C53.5314 6 59.6586 8.97984 63.827 13.6974V13.9934M29.0692 42.4145V42.7105C33.239 47.7695 39.5886 51 46.7008 51C53.813 51 60.1625 47.7695 64.3324 42.7105V42.4145M29.6457 13.6974H16.1811V22.875M63.7559 13.6974H77.8189V22.875M64.3543 42.7105H77.8189V34.7171M29.0472 42.7105H16.1811V34.7171M77.8189 22.5789H78.7165C82.1868 22.5789 85 25.3624 85 28.7961C85 32.2297 82.1868 35.0132 78.7165 35.0132H77.8189M16.1811 22.5789H15.2835C11.8132 22.5789 9 25.3624 9 28.7961C9 32.2297 11.8132 35.0132 15.2835 35.0132H16.1811" stroke="#ED1C24" stroke-width="0.5" stroke-dasharray="2 2"/>
</svg>
