<svg width="94" height="57" viewBox="0 0 94 57" fill="none" xmlns="http://www.w3.org/2000/svg">
<path d="M25.8811 10.7697V10.4079C30.922 4.64203 38.3317 1 46.5921 1C54.8525 1 62.2622 4.64203 67.3031 10.4079V10.7697M25.2699 45.5066V45.8684C30.3126 52.0516 37.9913 56 46.5921 56C55.193 56 62.8716 52.0516 67.9143 45.8684V45.5066M25.9671 10.4079H9.68421V21.625M67.2171 10.4079H84.2237V21.625M67.9408 45.8684H84.2237V36.0987M25.2434 45.8684H9.68421V36.0987M84.2237 21.2632H85.3092C89.5059 21.2632 92.9079 24.6652 92.9079 28.8618C92.9079 33.0585 89.5059 36.4605 85.3092 36.4605H84.2237M9.68421 21.2632H8.59868C4.40205 21.2632 1 24.6652 1 28.8618C1 33.0585 4.40205 36.4605 8.59868 36.4605H9.68421" stroke="#B8B8B8" stroke-width="1.5"/>
<path d="M28.8572 27.3878C28.9322 27.3495 29.0072 27.3143 29.0822 27.2806C30.3603 26.6883 31.6552 26.1342 32.9486 25.5801C33.019 25.5801 33.1369 25.5005 33.2012 25.4714C33.3007 25.4286 33.4002 25.3857 33.5012 25.3429C33.6925 25.2602 33.8854 25.1791 34.0767 25.0964C34.4609 24.9327 34.8436 24.7689 35.2278 24.6036C35.9947 24.276 36.7631 23.9469 37.5299 23.6194C39.0652 22.9627 40.6005 22.3061 42.1357 21.6495C43.671 20.9928 45.2062 20.3362 46.7415 19.6796C48.2767 19.0229 49.812 18.3663 51.3473 17.7096C52.8825 17.053 54.4178 16.3964 55.9531 15.7397C56.2944 15.5943 56.6648 15.3739 57.0291 15.3096C57.3368 15.256 57.6368 15.1489 57.9445 15.0907C58.5307 14.979 59.1782 14.9331 59.7384 15.1764C59.9328 15.2606 60.1103 15.38 60.2619 15.5285C60.9736 16.2341 60.8742 17.3912 60.7241 18.3831C59.6741 25.2954 58.6241 32.2062 57.5725 39.1185C57.4286 40.066 57.2342 41.1068 56.4842 41.7053C55.8505 42.2119 54.9489 42.2701 54.1683 42.0542C53.3861 41.8384 52.6958 41.3838 52.0192 40.9354C49.212 39.0772 46.4047 37.2175 43.5975 35.3593C42.9301 34.9169 42.1877 34.3414 42.1954 33.5409C42.2 33.0587 42.4878 32.6286 42.7817 32.246C45.22 29.0653 48.7421 26.8781 51.3595 23.8428C51.7284 23.4158 52.0192 22.6413 51.5126 22.3949C51.2111 22.2479 50.8636 22.4469 50.5896 22.6382C47.1288 25.0429 43.6679 27.4475 40.2071 29.8506C39.0774 30.6342 37.8942 31.4424 36.5335 31.6353C35.3166 31.8082 34.0905 31.47 32.9119 31.1225C31.9246 30.8317 30.9389 30.5347 29.9562 30.2271C29.4342 30.0648 28.8954 29.8903 28.4913 29.5215C28.0872 29.1541 27.8561 28.5357 28.0995 28.0459C28.251 27.7383 28.548 27.5439 28.8587 27.3863L28.8572 27.3878Z" fill="#B8B8B8"/>
</svg>
