<svg width="94" height="57" viewBox="0 0 94 57" fill="none" xmlns="http://www.w3.org/2000/svg">
<path d="M1 29C1 34.2 6.66667 36.5 9.5 37V45.5H25C27.3333 49.1667 34.9 56.5 46.5 56.5C58.1 56.5 65.6667 49.1667 68 45.5H84V37C87 37 93 35.4 93 29C93 22.6 87 21 84 21V10.5H67C58.5 2.99999 57 1.99999 46.5 0.999995C38.1 0.199995 29 6.99999 25.5 10.5H9.5V21C6.66667 21.5 1 23.8 1 29Z" fill="white"/>
<path d="M62.7262 23.8984C62.5309 22.0269 62.1077 19.9601 60.5516 18.8726C59.3447 18.0295 57.7601 17.9986 56.2809 18C53.1531 18.0028 50.0253 18.0057 46.8974 18.0085C43.8893 18.0113 40.8811 18.0141 37.8729 18.0169C36.6161 18.0169 35.3949 17.9214 34.2278 18.4567C33.2246 18.9175 32.4409 19.7929 31.9706 20.7665C31.3151 22.1224 31.1769 23.6567 31.0985 25.1558C30.9532 27.8844 30.9689 30.6214 31.1441 33.3472C31.271 35.3381 31.5944 37.537 33.1548 38.8057C34.5384 39.9297 36.4907 39.9845 38.2833 39.986C43.9776 39.9902 49.6719 39.9944 55.3661 40C56.0957 40 56.8581 39.9873 57.6019 39.9073C59.0668 39.7513 60.4619 39.3382 61.4024 38.269C62.3514 37.1913 62.5951 35.6894 62.7404 34.2689C63.091 30.8237 63.0867 27.3421 62.7262 23.8984ZM43.6042 33.8319V24.1681L52.0929 29L43.6042 33.8319Z" fill="#ED1C24"/>
<path d="M25.8811 10.7697V10.4079C30.922 4.64203 38.3317 1 46.5921 1C54.8525 1 62.2622 4.64203 67.3031 10.4079V10.7697M25.2699 45.5066V45.8684C30.3126 52.0516 37.9913 56 46.5921 56C55.193 56 62.8716 52.0516 67.9143 45.8684V45.5066M25.9671 10.4079H9.68421V21.625M67.2171 10.4079H84.2237V21.625M67.9408 45.8684H84.2237V36.0987M25.2434 45.8684H9.68421V36.0987M84.2237 21.2632H85.3092C89.5059 21.2632 92.9079 24.6652 92.9079 28.8618C92.9079 33.0585 89.5059 36.4605 85.3092 36.4605H84.2237M9.68421 21.2632H8.59868C4.40205 21.2632 1 24.6652 1 28.8618C1 33.0585 4.40205 36.4605 8.59868 36.4605H9.68421" stroke="#ED1C24" stroke-width="1.5"/>
<path d="M29.5745 13.9934V13.6974C33.7429 8.97984 39.8702 6 46.7008 6C53.5314 6 59.6586 8.97984 63.827 13.6974V13.9934M29.0692 42.4145V42.7105C33.239 47.7695 39.5886 51 46.7008 51C53.813 51 60.1625 47.7695 64.3324 42.7105V42.4145M29.6457 13.6974H16.1811V22.875M63.7559 13.6974H77.8189V22.875M64.3543 42.7105H77.8189V34.7171M29.0472 42.7105H16.1811V34.7171M77.8189 22.5789H78.7165C82.1868 22.5789 85 25.3624 85 28.7961C85 32.2297 82.1868 35.0132 78.7165 35.0132H77.8189M16.1811 22.5789H15.2835C11.8132 22.5789 9 25.3624 9 28.7961C9 32.2297 11.8132 35.0132 15.2835 35.0132H16.1811" stroke="#ED1C24" stroke-width="0.5" stroke-dasharray="2 2"/>
</svg>
