<svg width="94" height="57" viewBox="0 0 94 57" fill="none" xmlns="http://www.w3.org/2000/svg">
<path d="M25.8811 10.7697V10.4079C30.922 4.64203 38.3317 1 46.5921 1C54.8525 1 62.2622 4.64203 67.3031 10.4079V10.7697M25.2699 45.5066V45.8684C30.3126 52.0516 37.9913 56 46.5921 56C55.193 56 62.8716 52.0516 67.9143 45.8684V45.5066M25.9671 10.4079H9.68421V21.625M67.2171 10.4079H84.2237V21.625M67.9408 45.8684H84.2237V36.0987M25.2434 45.8684H9.68421V36.0987M84.2237 21.2632H85.3092C89.5059 21.2632 92.9079 24.6652 92.9079 28.8618C92.9079 33.0585 89.5059 36.4605 85.3092 36.4605H84.2237M9.68421 21.2632H8.59868C4.40205 21.2632 1 24.6652 1 28.8618C1 33.0585 4.40205 36.4605 8.59868 36.4605H9.68421" stroke="#B8B8B8" stroke-width="1.5"/>
<path d="M64.0781 23.4256C63.8684 21.3868 63.4138 19.1353 61.7423 17.9506C60.4459 17.0322 58.7438 16.9985 57.1551 17C53.7953 17.0031 50.4356 17.0062 47.0759 17.0092C43.8448 17.0123 40.6136 17.0153 37.3824 17.0184C36.0324 17.0184 34.7207 16.9143 33.4671 17.4975C32.3895 17.9995 31.5477 18.9531 31.0426 20.0138C30.3385 21.4909 30.19 23.1623 30.1058 24.7955C29.9497 27.768 29.9666 30.7497 30.1548 33.7191C30.291 35.888 30.6385 38.2834 32.3145 39.6656C33.8008 40.8901 35.8977 40.9498 37.8232 40.9513C43.9396 40.9559 50.056 40.9605 56.1724 40.9666C56.9561 40.9666 57.775 40.9528 58.5739 40.8656C60.1474 40.6957 61.6459 40.2457 62.6561 39.0808C63.6755 37.9069 63.9373 36.2706 64.0934 34.7232C64.4699 30.9701 64.4653 27.1772 64.0781 23.4256ZM43.5386 34.2471V23.7195L52.6566 28.9833L43.5386 34.2471Z" fill="#B8B8B8"/>
</svg>
